# xmcd
#
# Track frame offsets:
# 150
# 39758
# 54458
# 74473
# 96078
# 120218
#
# Disc length: 2520 seconds
#
# Revision: 1
# Processed by: cddbd v1.5.1PL0 Copyright (c) Steve Scherf et al.
# Submitted via: Easy CD Ripper v2.27
#
DISCID=4209d606
DTITLE=Blind Faith - Blind Faith
DYEAR=1969
DGENRE=Blues
TTITLE0=Had to Cry Today
TTITLE1=Can't Find My Way Home
TTITLE2=Well All Right
TTITLE3=Presence of the Lord
TTITLE4=Sea of Joy
TTITLE5=Do What You Like
EXTD=
EXTT0=
EXTT1=
EXTT2=
EXTT3=
EXTT4=
EXTT5=
PLAYORDER=
